<?xml version="1.0" encoding="iso-8859-1"?>
<!-- Generator: Adobe Illustrator 19.0.0, SVG Export Plug-In . SVG Version: 6.00 Build 0)  -->
<svg xmlns="http://www.w3.org/2000/svg" xmlns:xlink="http://www.w3.org/1999/xlink" version="1.1" id="Capa_1" x="0px" y="0px" viewBox="0 0 512 512" style="enable-background:new 0 0 512 512;" xml:space="preserve" width="512px" height="512px">
<g>
	<g>
		<g>
			<path d="M504,136H376V72h16c4.418,0,8-3.582,8-8V32c0-4.418-3.582-8-8-8H120c-4.418,0-8,3.582-8,8v32c0,4.418,3.582,8,8,8h16v64     H8c-4.418,0-8,3.582-8,8v48c0,4.418,3.582,8,8,8h16v232c0,2.122,0.844,4.156,2.344,5.656l16,16c1.5,1.5,3.534,2.344,5.656,2.344     h256v-16H51.312L40,428.688V200h432v88h16v-88h16c4.418,0,8-3.582,8-8v-48C512,139.582,508.418,136,504,136z M128,40h256v16H128     V40z M152,72h208v64H152V72z M496,184H16v-32h480V184z" fill="#FFFFFF"/>
			<path d="M248,224c-8.837,0-16,7.163-16,16v160c0,8.837,7.163,16,16,16h16c8.837,0,16-7.163,16-16V240c0-8.837-7.163-16-16-16H248     z M264,400h-16V240h16V400z" fill="#FFFFFF"/>
			<path d="M408,280v-40c0-8.837-7.163-16-16-16h-16c-8.837,0-16,7.163-16,16v48h16v-48h16v40H408z" fill="#FFFFFF"/>
			<path d="M120,224c-8.837,0-16,7.163-16,16v160c0,8.837,7.163,16,16,16h16c8.837,0,16-7.163,16-16V240c0-8.837-7.163-16-16-16H120     z M136,400h-16V240h16V400z" fill="#FFFFFF"/>
			<rect x="64" y="256" width="16" height="128" fill="#FFFFFF"/>
			<rect x="184" y="256" width="16" height="128" fill="#FFFFFF"/>
			<rect x="312" y="256" width="16" height="64" fill="#FFFFFF"/>
			<rect x="432" y="256" width="16" height="24" fill="#FFFFFF"/>
			<path d="M416,296c-53.019,0-96,42.981-96,96s42.981,96,96,96c52.996-0.057,95.943-43.004,96-96C512,338.981,469.019,296,416,296z      M416,472c-44.183,0-80-35.817-80-80c0-44.183,35.817-80,80-80c44.163,0.048,79.952,35.837,80,80     C496,436.183,460.183,472,416,472z" fill="#FFFFFF"/>
			<polygon points="424,344 408,344 408,384 368,384 368,400 408,400 408,440 424,440 424,400 464,400 464,384 424,384    " fill="#FFFFFF"/>
		</g>
	</g>
</g>
<g>
</g>
<g>
</g>
<g>
</g>
<g>
</g>
<g>
</g>
<g>
</g>
<g>
</g>
<g>
</g>
<g>
</g>
<g>
</g>
<g>
</g>
<g>
</g>
<g>
</g>
<g>
</g>
<g>
</g>
</svg>
