<svg width="98" height="58" viewBox="0 0 98 58" version="1.1" xmlns="http://www.w3.org/2000/svg" xmlns:xlink="http://www.w3.org/1999/xlink">
<title>Tips big\</title>
<desc>Created using Figma</desc>
<g id="Canvas" transform="translate(-48551 -8640)">
<g id="Tips big\" filter="url(#filter0_d)">
<g id="Vector">
<use xlink:href="#path0_fill" transform="translate(48561 8650)" fill="#0F1B46"/>
</g>
<g id="Vector">
<use xlink:href="#path1_stroke" transform="translate(48562 8651.07)" fill="#FFFFFF"/>
</g>
<g id="Vector">
<use xlink:href="#path2_fill" transform="translate(48610.6 8660.95)" fill="#F58220"/>
</g>
<g id="Vector">
<use xlink:href="#path2_fill" transform="translate(48610.6 8662.02)" fill="#A6CE39"/>
</g>
<g id="Vector">
<use xlink:href="#path3_fill" transform="translate(48610.6 8662.88)" fill="#0095DA"/>
</g>
<g id="Vector">
<use xlink:href="#path4_fill" transform="translate(48596 8660.95)" fill="#FFFFFF"/>
</g>
<g id="Vector">
<use xlink:href="#path5_fill" transform="translate(48606.4 8660.95)" fill="#FFFFFF"/>
</g>
<g id="Vector">
<use xlink:href="#path6_fill" transform="translate(48610.6 8660.74)" fill="#FFFFFF"/>
</g>
<g id="Vector">
<use xlink:href="#path7_fill" transform="translate(48623.6 8660.95)" fill="#FFFFFF"/>
</g>
<g id="Vector">
<use xlink:href="#path8_fill" transform="translate(48564.8 8654.29)" fill="#F58220"/>
</g>
<g id="Vector">
<use xlink:href="#path9_fill" transform="translate(48576.1 8660.09)" fill="#0095DA"/>
</g>
<g id="Vector">
<use xlink:href="#path10_fill" transform="translate(48569.8 8665.85)" fill="#A6CE39"/>
</g>
<g id="Vector">
<use xlink:href="#path11_fill" transform="translate(48578.6 8667.18)" fill="#F58220"/>
</g>
<g id="Vector">
<use xlink:href="#path12_fill" transform="translate(48629.7 8656.87)" fill="#FFFFFF"/>
</g>
</g>
</g>
<defs>
<filter id="filter0_d" filterUnits="userSpaceOnUse" x="48551" y="8640" width="98" height="58" color-interpolation-filters="sRGB">
<feFlood flood-opacity="0" result="BackgroundImageFix"/>
<feColorMatrix in="SourceAlpha" type="matrix" values="0 0 0 0 0 0 0 0 0 0 0 0 0 0 0 0 0 0 255 0"/>
<feOffset dx="0" dy="0"/>
<feGaussianBlur stdDeviation="5"/>
<feColorMatrix type="matrix" values="0 0 0 0 0 0 0 0 0 0 0 0 0 0 0 0 0 0 0.4 0"/>
<feBlend mode="normal" in2="BackgroundImageFix" result="effect1_dropShadow"/>
<feBlend mode="normal" in="SourceGraphic" in2="effect1_dropShadow" result="shape"/>
</filter>
<path id="path0_fill" fill-rule="evenodd" d="M 3.44416 0L 6.68571 0L 71.3143 0L 74.5558 0C 76.5818 0 78 1.71751 78 3.64972L 78 34.3503C 78 36.4972 76.3792 38 74.5558 38L 71.3143 38L 6.88831 38L 3.44416 38C 1.62078 38 0 36.4972 0 34.3503L 0 3.64972C 0 1.71751 1.62078 0 3.44416 0Z"/>
<path id="path1_stroke" d="M 5.84814e-15 2.57627L -0.09395 2.57627L 5.84814e-15 2.57627ZM 2.63377 0.09395L 73.5429 0.09395L 73.5429 -0.09395L 2.63377 -0.09395L 2.63377 0.09395ZM 73.5429 0.09395C 74.9139 0.09395 76.0827 1.12999 76.0827 2.57627L 76.2706 2.57627C 76.2706 1.01691 75.0081 -0.09395 73.5429 -0.09395L 73.5429 0.09395ZM 76.0827 2.57627L 76.0827 33.2768L 76.2706 33.2768L 76.2706 2.57627L 76.0827 2.57627ZM 76.0827 33.2768C 76.0827 34.7231 74.9139 35.7592 73.5429 35.7592L 73.5429 35.9471C 75.0081 35.9471 76.2706 34.8362 76.2706 33.2768L 76.0827 33.2768ZM 73.5429 35.7592L 2.63377 35.7592L 2.63377 35.9471L 73.5429 35.9471L 73.5429 35.7592ZM 2.63377 35.7592C 1.26269 35.7592 0.09395 34.7231 0.09395 33.2768L -0.09395 33.2768C -0.09395 34.8362 1.16847 35.9471 2.63377 35.9471L 2.63377 35.7592ZM 0.09395 33.2768L 0.09395 2.57627L -0.09395 2.57627L -0.09395 33.2768L 0.09395 33.2768ZM 0.09395 2.57627C 0.09395 1.96121 0.384834 1.34001 0.851627 0.871388C 1.31802 0.40317 1.95343 0.09395 2.63377 0.09395L 2.63377 -0.09395C 1.89592 -0.09395 1.21445 0.240897 0.718503 0.738782C 0.222958 1.23627 -0.09395 1.9032 -0.09395 2.57627L 0.09395 2.57627Z"/>
<path id="path2_fill" d="M 3.24156 0L 0 0L 0 0.429379L 3.24156 0.429379L 3.24156 0Z"/>
<path id="path3_fill" d="M 3.24156 0L 0 0L 0 0.429378L 3.24156 0.429378L 3.24156 0Z"/>
<path id="path4_fill" fill-rule="evenodd" d="M -1.5457e-06 2.57627L 3.44416 2.57627L 3.44416 14.8136L 6.07792 14.8136L 6.07792 2.57627L 9.31948 2.57627L 9.31948 -2.04744e-07L -1.5457e-06 -2.04744e-07L -1.5457e-06 2.57627Z"/>
<path id="path5_fill" d="M 2.63377 0L 0 0L 0 14.8136L 2.63377 14.8136L 2.63377 0Z"/>
<path id="path6_fill" fill-rule="evenodd" d="M 3.44416 2.79096L 6.88831 2.79096C 8.1039 2.79096 8.91428 3.43503 8.91428 4.50847C 8.91428 7.08475 5.67273 6.0113 3.44416 6.22599C 1.62078 6.44068 0 7.9435 0 10.0904L 0 15.0282L 2.43117 15.0282L 2.43117 10.5198C 2.43117 6.87006 11.3455 11.8079 11.3455 4.72316L 11.3455 4.29379C 11.3455 1.9322 9.52208 0 7.49611 0L 3.24156 0L 3.24156 2.79096L 3.44416 2.79096Z"/>
<path id="path7_fill" fill-rule="evenodd" d="M -7.72848e-07 4.0791L -7.72848e-07 4.29378C -7.72848e-07 11.8079 9.72468 6.44068 9.72468 10.0904L 9.72468 10.7345C 9.72468 11.5932 8.91429 12.2373 8.1039 12.2373L 0.607794 12.2373L 0.607794 14.8136L 8.30649 14.8136C 10.3325 14.8136 12.1558 12.8814 12.1558 10.7345L 12.1558 9.8757C 12.1558 7.51412 10.3325 6.0113 8.1039 6.0113C 5.67273 5.79661 2.02597 6.87006 2.02597 4.29378C 2.02597 3.22034 2.83636 2.57627 3.84935 2.57627L 10.9403 2.57627L 10.9403 -2.04744e-07L 3.64675 -2.04744e-07C 1.62078 -2.04744e-07 -7.72848e-07 1.50282 -7.72848e-07 4.0791Z"/>
<path id="path8_fill" fill-rule="evenodd" d="M 14.0619 0C 15.2775 0 16.2905 0.214689 17.1009 2.57627C 17.9113 4.72316 17.9113 7.08475 18.1139 8.15819C 18.3165 9.01695 18.5191 9.87571 19.7346 10.0904C 20.9502 10.3051 22.7736 10.3051 25.61 10.3051C 28.8515 10.3051 30.2697 12.0226 30.2697 13.3107C 30.2697 14.8136 29.2567 15.4576 26.4204 16.5311C 23.584 17.6045 21.9632 19.322 22.571 21.8983C 23.1788 24.4746 23.9892 26.1921 23.9892 28.1243C 23.9892 30.0565 22.571 30.4859 21.9632 30.4859C 21.3554 30.4859 20.1398 30.4859 17.7087 27.9096C 15.0749 25.548 14.8723 25.1186 13.4541 25.1186C 12.0359 25.1186 10.8204 25.9774 8.79438 27.6949C 6.971 29.4124 5.95802 30.2712 4.33724 29.4124C 2.71646 28.5537 3.32425 26.6215 3.72945 25.548C 3.93204 24.4746 5.35022 21.8983 5.95802 20.3955C 6.56581 19.1073 6.971 18.678 5.55282 17.6045C 4.33724 16.5311 1.50087 15.0282 0.893082 13.3107C -0.322502 11.8079 -0.727697 9.66102 2.51386 8.58757C 4.74243 7.72881 6.76841 8.15819 8.59178 7.9435C 10.2126 7.9435 10.4152 7.29944 10.4152 6.0113C 10.6178 4.72316 10.6178 2.57627 11.2255 1.71751C 11.8333 0.858757 12.4411 0 14.0619 0ZM 13.0489 1.28814C 12.0359 1.9322 11.8333 3.43503 11.6307 5.79661C 11.2255 8.15819 11.023 8.37288 10.01 8.80226C 8.79438 9.23164 6.971 9.01695 4.53983 9.23164C 2.10867 9.44633 0.893082 10.3051 0.893082 11.5932C 0.893082 12.6667 1.29828 13.3107 2.31126 14.3842C 3.32425 15.4576 3.93204 15.2429 5.95802 16.9605C 7.98399 18.678 7.3762 19.5367 6.56581 21.2542C 5.55282 23.1864 4.74243 25.3333 4.33724 26.6215C 3.93204 27.9096 4.13464 28.7684 5.14763 28.7684C 6.16061 28.7684 6.16061 28.5537 7.3762 27.6949C 8.59178 26.8362 10.01 25.1186 11.6307 24.4746C 13.0489 23.8305 13.8593 24.0452 14.8723 24.6893C 15.8853 25.1186 17.5061 27.2655 19.1268 28.339C 20.7476 29.4124 21.7606 29.8418 22.571 29.1977C 23.3814 28.5537 22.7736 26.6215 21.9632 24.2599C 21.3554 21.8983 21.1528 21.2542 21.3554 19.322C 21.558 17.3898 23.9892 16.3164 25.61 15.6723C 27.2307 15.0282 29.0541 14.5989 29.0541 13.096C 29.0541 11.8079 28.4463 11.5932 27.0281 11.1638C 25.8126 10.9492 22.9762 10.9492 20.545 10.9492C 18.1139 10.9492 17.1009 9.87571 16.8983 7.72881C 16.4931 5.36723 16.2905 3.43503 15.8853 2.36158C 15.4801 1.07345 14.8723 0.644068 14.2645 0.644068C 14.2645 0.644068 14.0619 0.644068 13.0489 1.28814Z"/>
<path id="path9_fill" fill-rule="evenodd" d="M 3.5364 -4.09487e-07C 4.54939 -4.09487e-07 5.15718 0.858757 5.15718 1.28814C 5.15718 1.71751 4.95459 1.71751 4.54939 1.50282C 4.1442 1.28814 3.33381 1.28814 2.52342 1.50282C 1.51043 1.9322 1.30783 2.79096 1.30783 3.22034C 1.30783 3.64972 1.91562 4.0791 2.92861 4.0791C 4.1442 4.0791 4.34679 3.64972 4.34679 3.43503C 4.34679 3.22034 3.9416 3.00565 3.33381 3.00565C 2.92861 3.00565 2.52342 3.22034 2.32082 3.22034C 1.91563 3.43503 1.71303 3.22034 1.71303 2.79096C 1.71303 2.36158 2.32082 1.71751 3.33381 1.71751C 4.3468 1.71751 5.35978 2.14689 5.35978 3.64972C 5.35978 5.15254 4.54939 5.58192 2.92861 5.58192C 1.10524 5.79661 0.497444 5.15254 0.0922487 3.43503C -0.312946 1.9322 0.70004 1.07345 1.51043 0.644068C 2.32082 0.214689 3.13121 -4.09487e-07 3.5364 -4.09487e-07Z"/>
<path id="path10_fill" fill-rule="evenodd" d="M 20.1369 0.677958C 20.1369 0.248579 19.7317 0.0338907 19.3266 0.0338907C 18.9214 0.0338907 17.5032 0.24858 13.8564 0.892648C 10.2097 1.32203 7.5759 1.32203 4.94214 1.10734C 2.51097 0.892648 0.890188 0.24858 0.484993 0.0338907C -0.122799 -0.180799 -0.122799 0.677958 0.282396 1.10734C 0.282396 1.53672 1.29538 1.96609 3.11876 2.39547C 4.73954 2.61016 5.54993 2.61016 8.58889 2.82485C 8.58889 3.46892 8.58889 4.11299 8.38629 4.97174C 8.18369 6.04519 7.5759 7.33332 6.56292 8.62146C 5.54993 10.1243 4.33434 11.1977 1.70058 13.774L 2.51097 14.8474C 2.51097 14.8474 3.52395 13.774 5.54993 11.8418C 7.5759 9.69491 7.7785 9.26553 9.19668 7.54801C 9.39928 7.97739 10.0071 9.05084 11.2227 11.4124C 12.6408 13.5593 14.4642 15.9209 14.4642 15.9209C 14.4642 15.9209 14.8694 15.4915 15.4772 15.0621C 14.6668 13.9887 12.2356 10.339 11.2227 8.83615C 10.2097 7.33332 10.2097 6.04519 10.0071 4.97174C 10.0071 4.32767 10.0071 3.25423 10.0071 2.82485C 14.6668 2.82485 18.5162 1.96609 19.124 1.7514C 20.1369 1.32203 20.1369 1.32203 20.1369 0.677958Z"/>
<path id="path11_fill" fill-rule="evenodd" d="M -3.86424e-07 0.644068L 0.607792 0.429378L 0.81039 0L 1.01299 0.429378L 1.41818 0.644068L 1.01299 1.07345L 1.21558 1.50282L 0.81039 1.28814L 0.202598 1.71751L 0.405194 1.07345L -3.86424e-07 0.644068Z"/>
<path id="path12_fill" fill-rule="evenodd" d="M 1.01299 3.00565L 1.01299 0.429379L 3.09139e-06 0.429379L 3.09139e-06 1.02372e-07L 2.22857 1.02372e-07L 2.22857 0.429379L 1.21558 0.429379L 1.21558 3.00565L 1.01299 3.00565ZM 2.63377 3.00565L 2.63377 1.02372e-07L 3.24156 1.02372e-07L 3.84935 2.14689C 3.84935 2.36158 4.05195 2.57627 4.05195 2.57627C 4.05195 2.36158 4.05195 2.36158 4.25454 2.14689L 4.86234 1.02372e-07L 5.26753 1.02372e-07L 5.26753 3.00565L 4.86234 3.00565L 4.86234 0.429379L 4.05195 3.00565L 3.64675 3.00565L 2.83636 0.429379L 2.83636 3.00565L 2.63377 3.00565Z"/>
</defs>
</svg>
